<?xml version="1.0" encoding="UTF-8" standalone="no"?>
<!-- Created with Inkscape (http://www.inkscape.org/) -->

<svg
   width="1920"
   height="1080"
   viewBox="0 0 1920 1080"
   version="1.1"
   id="svg1"
   inkscape:version="1.3.2 (091e20e, 2023-11-25, custom)"
   sodipodi:docname="background_logo.svg"
   xmlns:inkscape="http://www.inkscape.org/namespaces/inkscape"
   xmlns:sodipodi="http://sodipodi.sourceforge.net/DTD/sodipodi-0.dtd"
   xmlns:xlink="http://www.w3.org/1999/xlink"
   xmlns="http://www.w3.org/2000/svg"
   xmlns:svg="http://www.w3.org/2000/svg">
  <sodipodi:namedview
     id="namedview1"
     pagecolor="#505050"
     bordercolor="#eeeeee"
     borderopacity="1"
     inkscape:showpageshadow="0"
     inkscape:pageopacity="0"
     inkscape:pagecheckerboard="0"
     inkscape:deskcolor="#505050"
     inkscape:document-units="px"
     showgrid="true"
     inkscape:zoom="0.51717104"
     inkscape:cx="983.23372"
     inkscape:cy="509.50263"
     inkscape:window-width="1920"
     inkscape:window-height="1017"
     inkscape:window-x="-8"
     inkscape:window-y="-8"
     inkscape:window-maximized="1"
     inkscape:current-layer="layer2">
    <inkscape:grid
       id="grid1"
       units="px"
       originx="0"
       originy="0"
       spacingx="1"
       spacingy="1"
       empcolor="#0099e5"
       empopacity="0.30196078"
       color="#0099e5"
       opacity="0.14901961"
       empspacing="5"
       dotted="false"
       gridanglex="30"
       gridanglez="30"
       visible="true" />
  </sodipodi:namedview>
  <defs
     id="defs1">
    <linearGradient
       inkscape:collect="always"
       xlink:href="#linearGradient1"
       id="linearGradient2"
       x1="187.85417"
       y1="26.656164"
       x2="207.1915"
       y2="26.656164"
       gradientUnits="userSpaceOnUse"
       gradientTransform="matrix(1.0139627,0,0,0.99870495,-2.6259604,0.03452095)" />
    <linearGradient
       id="linearGradient1"
       inkscape:collect="always">
      <stop
         style="stop-color:#012862;stop-opacity:1;"
         offset="0"
         id="stop1" />
      <stop
         style="stop-color:#095f40;stop-opacity:1;"
         offset="1"
         id="stop2" />
    </linearGradient>
  </defs>
  <g
     inkscape:label="Layer 1"
     inkscape:groupmode="layer"
     id="layer1">
    <g
       inkscape:groupmode="layer"
       id="layer2"
       inkscape:label="dna"
       transform="matrix(12.746434,0,0,16.140652,-791.99265,514.5179)">
      <path
         id="rect8-3-30-4"
         transform="matrix(0.14948123,0,0,0.30005012,164.99523,21.689218)"
         inkscape:transform-center-x="-1.0475777e-06"
         inkscape:transform-center-y="-0.20313429"
         d="m 193.49704,16.346758 h 1.59752 a 0.75,0.75 45 0 1 0.75,0.75 v 5.10201 a 0.75,0.75 135 0 1 -0.75,0.75 h -1.59752 a 0.75,0.75 45 0 1 -0.75,-0.75 v -5.10201 a 0.75,0.75 135 0 1 0.75,-0.75 z"
         style="fill:#633172;fill-opacity:1;stroke:none;stroke-width:1;stroke-dasharray:none;stroke-opacity:1" />
      <path
         id="rect8"
         transform="matrix(0.14948123,0,0,0.24045708,161.2249,22.674601)"
         inkscape:transform-center-x="-1.0475777e-06"
         inkscape:transform-center-y="-0.16278973"
         d="m 193.49704,16.346758 h 1.59752 a 0.75,0.75 45 0 1 0.75,0.75 v 5.10201 a 0.75,0.75 135 0 1 -0.75,0.75 h -1.59752 a 0.75,0.75 45 0 1 -0.75,-0.75 v -5.10201 a 0.75,0.75 135 0 1 0.75,-0.75 z"
         style="fill:#a61c07;fill-opacity:1;stroke:none;stroke-width:1;stroke-dasharray:none;stroke-opacity:1" />
      <path
         id="rect8-3"
         transform="matrix(0.14948123,0,0,0.24045708,161.2249,20.82709)"
         inkscape:transform-center-x="-1.0475777e-06"
         inkscape:transform-center-y="-0.16278973"
         d="m 193.49704,16.346758 h 1.59752 a 0.75,0.75 45 0 1 0.75,0.75 v 5.10201 a 0.75,0.75 135 0 1 -0.75,0.75 h -1.59752 a 0.75,0.75 45 0 1 -0.75,-0.75 v -5.10201 a 0.75,0.75 135 0 1 0.75,-0.75 z"
         style="fill:#fed867;fill-opacity:1;stroke:none;stroke-width:1;stroke-dasharray:none;stroke-opacity:1" />
      <path
         id="rect8-3-3"
         transform="matrix(0.14948123,0,0,0.30006147,162.48168,21.688957)"
         inkscape:transform-center-x="-1.0475777e-06"
         inkscape:transform-center-y="-0.20314229"
         d="m 193.49704,16.346758 h 1.59752 a 0.75,0.75 45 0 1 0.75,0.75 v 5.10201 a 0.75,0.75 135 0 1 -0.75,0.75 h -1.59752 a 0.75,0.75 45 0 1 -0.75,-0.75 v -5.10201 a 0.75,0.75 135 0 1 0.75,-0.75 z"
         style="fill:#92b0b9;fill-opacity:1;stroke:none;stroke-width:1;stroke-dasharray:none;stroke-opacity:1" />
      <path
         id="rect8-3-3-4"
         transform="matrix(0.14948123,0,0,0.30006147,162.48169,19.46468)"
         inkscape:transform-center-x="-1.0475777e-06"
         inkscape:transform-center-y="-0.20314229"
         d="m 193.49704,16.346758 h 1.59752 a 0.75,0.75 45 0 1 0.75,0.75 v 5.10201 a 0.75,0.75 135 0 1 -0.75,0.75 h -1.59752 a 0.75,0.75 45 0 1 -0.75,-0.75 v -5.10201 a 0.75,0.75 135 0 1 0.75,-0.75 z"
         style="fill:#633172;fill-opacity:1;stroke:none;stroke-width:1;stroke-dasharray:none;stroke-opacity:1" />
      <path
         id="rect8-3-30"
         transform="matrix(0.14948123,0,0,0.34012624,163.73846,21.034104)"
         inkscape:transform-center-x="-1.0475777e-06"
         inkscape:transform-center-y="-0.23026514"
         d="m 193.49704,16.346758 h 1.59752 a 0.75,0.75 45 0 1 0.75,0.75 v 5.10201 a 0.75,0.75 135 0 1 -0.75,0.75 h -1.59752 a 0.75,0.75 45 0 1 -0.75,-0.75 v -5.10201 a 0.75,0.75 135 0 1 0.75,-0.75 z"
         style="fill:#fed867;fill-opacity:1;stroke:none;stroke-width:1;stroke-dasharray:none;stroke-opacity:1" />
      <path
         id="rect8-3-30-1"
         transform="matrix(0.14948123,0,0,0.24045708,166.252,22.663371)"
         inkscape:transform-center-x="-1.0475777e-06"
         inkscape:transform-center-y="-0.16278973"
         d="m 193.49704,16.346758 h 1.59752 a 0.75,0.75 45 0 1 0.75,0.75 v 5.10201 a 0.75,0.75 135 0 1 -0.75,0.75 h -1.59752 a 0.75,0.75 45 0 1 -0.75,-0.75 v -5.10201 a 0.75,0.75 135 0 1 0.75,-0.75 z"
         style="fill:#fed867;fill-opacity:1;stroke:none;stroke-width:1;stroke-dasharray:none;stroke-opacity:1" />
      <path
         id="rect8-3-30-9"
         transform="matrix(0.14948123,0,0,0.34012624,163.73846,18.538289)"
         inkscape:transform-center-x="-1.0475777e-06"
         inkscape:transform-center-y="-0.23026514"
         d="m 193.49704,16.346758 h 1.59752 a 0.75,0.75 45 0 1 0.75,0.75 v 5.10201 a 0.75,0.75 135 0 1 -0.75,0.75 h -1.59752 a 0.75,0.75 45 0 1 -0.75,-0.75 v -5.10201 a 0.75,0.75 135 0 1 0.75,-0.75 z"
         style="fill:#92b0b9;fill-opacity:1;stroke:none;stroke-width:1;stroke-dasharray:none;stroke-opacity:1" />
      <path
         id="rect8-3-30-4-4"
         transform="matrix(0.14948123,0,0,0.30005012,164.99523,19.464866)"
         inkscape:transform-center-x="-1.0475777e-06"
         inkscape:transform-center-y="-0.20313429"
         d="m 193.49704,16.346758 h 1.59752 a 0.75,0.75 45 0 1 0.75,0.75 v 5.10201 a 0.75,0.75 135 0 1 -0.75,0.75 h -1.59752 a 0.75,0.75 45 0 1 -0.75,-0.75 v -5.10201 a 0.75,0.75 135 0 1 0.75,-0.75 z"
         style="fill:#a61c07;fill-opacity:1;stroke:none;stroke-width:1;stroke-dasharray:none;stroke-opacity:1" />
      <path
         id="rect8-3-30-1-0"
         transform="matrix(0.14948123,0,0,0.24045708,166.252,20.827163)"
         inkscape:transform-center-x="-1.0475777e-06"
         inkscape:transform-center-y="-0.16278973"
         d="m 193.49704,16.346758 h 1.59752 a 0.75,0.75 45 0 1 0.75,0.75 v 5.10201 a 0.75,0.75 135 0 1 -0.75,0.75 h -1.59752 a 0.75,0.75 45 0 1 -0.75,-0.75 v -5.10201 a 0.75,0.75 135 0 1 0.75,-0.75 z"
         style="fill:#633172;fill-opacity:1;stroke:none;stroke-width:1;stroke-dasharray:none;stroke-opacity:1" />
      <path
         id="rect8-3-30-4-1"
         inkscape:transform-center-x="-1.0475777e-06"
         inkscape:transform-center-y="-0.20313429"
         d="m 203.35446,26.592213 h 0.23879 a 0.11211092,0.22503759 0 0 1 0.11212,0.225037 v 1.530859 a 0.11211092,0.22503759 0 0 1 -0.11212,0.225038 h -0.23879 a 0.11211092,0.22503759 0 0 1 -0.11212,-0.225038 V 26.81725 a 0.11211092,0.22503759 0 0 1 0.11212,-0.225037 z"
         style="fill:#633172;fill-opacity:1;stroke:none;stroke-width:0.211783;stroke-dasharray:none;stroke-opacity:1" />
      <path
         id="rect8-9"
         inkscape:transform-center-x="-1.0475777e-06"
         inkscape:transform-center-y="-0.16278973"
         d="m 199.58573,26.605295 h 0.23879 a 0.11211092,0.18034281 0 0 1 0.11212,0.180343 v 1.226814 a 0.11211092,0.18034281 0 0 1 -0.11212,0.180343 h -0.23879 a 0.11211092,0.18034281 0 0 1 -0.11212,-0.180343 v -1.226814 a 0.11211092,0.18034281 0 0 1 0.11212,-0.180343 z"
         style="fill:#a61c07;fill-opacity:1;stroke:none;stroke-width:0.189589;stroke-dasharray:none;stroke-opacity:1" />
      <path
         id="rect8-3-4"
         inkscape:transform-center-x="-1.0475777e-06"
         inkscape:transform-center-y="-0.16278973"
         d="m 199.58573,24.757784 h 0.23879 a 0.11211092,0.18034281 0 0 1 0.11212,0.180343 v 1.226814 a 0.11211092,0.18034281 0 0 1 -0.11212,0.180343 h -0.23879 a 0.11211092,0.18034281 0 0 1 -0.11212,-0.180343 v -1.226814 a 0.11211092,0.18034281 0 0 1 0.11212,-0.180343 z"
         style="fill:#fed867;fill-opacity:1;stroke:none;stroke-width:0.189589;stroke-dasharray:none;stroke-opacity:1" />
      <path
         id="rect8-3-3-43"
         inkscape:transform-center-x="-1.0475777e-06"
         inkscape:transform-center-y="-0.20314229"
         d="m 200.84251,26.593989 h 0.23879 a 0.11211092,0.2250461 0 0 1 0.11212,0.225046 v 1.530917 a 0.11211092,0.2250461 0 0 1 -0.11212,0.225046 h -0.23879 a 0.11211092,0.2250461 0 0 1 -0.11212,-0.225046 v -1.530917 a 0.11211092,0.2250461 0 0 1 0.11212,-0.225046 z"
         style="fill:#92b0b9;fill-opacity:1;stroke:none;stroke-width:0.211787;stroke-dasharray:none;stroke-opacity:1" />
      <path
         id="rect8-3-3-4-3"
         inkscape:transform-center-x="-1.0475777e-06"
         inkscape:transform-center-y="-0.20314229"
         d="m 200.84252,24.369712 h 0.23879 a 0.11211092,0.2250461 0 0 1 0.11212,0.225046 v 1.530917 a 0.11211092,0.2250461 0 0 1 -0.11212,0.225046 h -0.23879 a 0.11211092,0.2250461 0 0 1 -0.11212,-0.225046 v -1.530917 a 0.11211092,0.2250461 0 0 1 0.11212,-0.225046 z"
         style="fill:#633172;fill-opacity:1;stroke:none;stroke-width:0.211787;stroke-dasharray:none;stroke-opacity:1" />
      <path
         id="rect8-3-30-3"
         inkscape:transform-center-x="-1.0475777e-06"
         inkscape:transform-center-y="-0.23026514"
         d="m 202.09929,26.594065 h 0.23879 a 0.11211092,0.25509468 0 0 1 0.11212,0.255095 v 1.735327 a 0.11211092,0.25509468 0 0 1 -0.11212,0.255095 h -0.23879 a 0.11211092,0.25509468 0 0 1 -0.11212,-0.255095 V 26.84916 a 0.11211092,0.25509468 0 0 1 0.11212,-0.255095 z"
         style="fill:#fed867;fill-opacity:1;stroke:none;stroke-width:0.225483;stroke-dasharray:none;stroke-opacity:1" />
      <path
         id="rect8-3-30-1-6"
         inkscape:transform-center-x="-1.0475777e-06"
         inkscape:transform-center-y="-0.16278973"
         d="m 204.61283,26.594065 h 0.23879 a 0.11211092,0.18034281 0 0 1 0.11212,0.180343 v 1.226814 a 0.11211092,0.18034281 0 0 1 -0.11212,0.180343 h -0.23879 a 0.11211092,0.18034281 0 0 1 -0.11212,-0.180343 v -1.226814 a 0.11211092,0.18034281 0 0 1 0.11212,-0.180343 z"
         style="fill:#fed867;fill-opacity:1;stroke:none;stroke-width:0.189589;stroke-dasharray:none;stroke-opacity:1" />
      <path
         id="rect8-3-30-9-1"
         inkscape:transform-center-x="-1.0475777e-06"
         inkscape:transform-center-y="-0.23026514"
         d="m 202.09929,24.09825 h 0.23879 a 0.11211092,0.25509468 0 0 1 0.11212,0.255095 v 1.735327 a 0.11211092,0.25509468 0 0 1 -0.11212,0.255095 h -0.23879 a 0.11211092,0.25509468 0 0 1 -0.11212,-0.255095 v -1.735327 a 0.11211092,0.25509468 0 0 1 0.11212,-0.255095 z"
         style="fill:#92b0b9;fill-opacity:1;stroke:none;stroke-width:0.225483;stroke-dasharray:none;stroke-opacity:1" />
      <path
         id="rect8-3-30-4-4-0"
         inkscape:transform-center-x="-1.0475777e-06"
         inkscape:transform-center-y="-0.20313429"
         d="m 203.35606,24.369713 h 0.23879 a 0.11211092,0.22503759 0 0 1 0.11212,0.225037 v 1.530859 a 0.11211092,0.22503759 0 0 1 -0.11212,0.225038 h -0.23879 a 0.11211092,0.22503759 0 0 1 -0.11212,-0.225038 V 24.59475 a 0.11211092,0.22503759 0 0 1 0.11212,-0.225037 z"
         style="fill:#a61c07;fill-opacity:1;stroke:none;stroke-width:0.211783;stroke-dasharray:none;stroke-opacity:1" />
      <path
         id="rect8-3-30-1-0-4"
         inkscape:transform-center-x="-1.0475777e-06"
         inkscape:transform-center-y="-0.16278973"
         d="m 204.61283,24.757857 h 0.23879 a 0.11211092,0.18034281 0 0 1 0.11212,0.180343 v 1.226814 a 0.11211092,0.18034281 0 0 1 -0.11212,0.180343 h -0.23879 a 0.11211092,0.18034281 0 0 1 -0.11212,-0.180343 V 24.9382 a 0.11211092,0.18034281 0 0 1 0.11212,-0.180343 z"
         style="fill:#633172;fill-opacity:1;stroke:none;stroke-width:0.189589;stroke-dasharray:none;stroke-opacity:1" />
      <path
         id="path7-5"
         style="fill:none;fill-opacity:1;stroke:url(#linearGradient2);stroke-width:1.0063;stroke-dasharray:none;stroke-opacity:1"
         d="m 188.248,26.65587 c 0,0 4.2796,5.300946 9.53185,0 5.25224,-5.300946 9.27247,0 9.27247,0 m -18.80432,5.89e-4 c 0,0 4.2796,-5.300949 9.53185,0 5.25224,5.300948 9.27247,0 9.27247,0" />
    </g>
  </g>
</svg>
