<?xml version="1.0" encoding="UTF-8" standalone="no"?>
<!-- Created with Inkscape (http://www.inkscape.org/) -->

<svg
   width="1920"
   height="1080"
   viewBox="0 0 1920 1080"
   version="1.1"
   id="svg1"
   inkscape:version="1.3.2 (091e20e, 2023-11-25, custom)"
   sodipodi:docname="button_play_T.svg"
   xmlns:inkscape="http://www.inkscape.org/namespaces/inkscape"
   xmlns:sodipodi="http://sodipodi.sourceforge.net/DTD/sodipodi-0.dtd"
   xmlns:xlink="http://www.w3.org/1999/xlink"
   xmlns="http://www.w3.org/2000/svg"
   xmlns:svg="http://www.w3.org/2000/svg">
  <sodipodi:namedview
     id="namedview1"
     pagecolor="#505050"
     bordercolor="#eeeeee"
     borderopacity="1"
     inkscape:showpageshadow="true"
     inkscape:pageopacity="0"
     inkscape:pagecheckerboard="0"
     inkscape:deskcolor="#505050"
     inkscape:document-units="px"
     inkscape:zoom="1.4627806"
     inkscape:cx="392.74515"
     inkscape:cy="145.27127"
     inkscape:window-width="1920"
     inkscape:window-height="1017"
     inkscape:window-x="1912"
     inkscape:window-y="-8"
     inkscape:window-maximized="1"
     inkscape:current-layer="layer1"
     showgrid="true"
     shape-rendering="crispEdges"
     inkscape:clip-to-page="false">
    <inkscape:grid
       id="grid1"
       units="mm"
       originx="0"
       originy="0"
       spacingx="1.3229167"
       spacingy="1.3229167"
       empcolor="#aee4ff"
       empopacity="0.30196078"
       color="#0099e5"
       opacity="0.14901961"
       empspacing="1"
       dotted="true"
       gridanglex="30"
       gridanglez="30"
       visible="true"
       enabled="false" />
  </sodipodi:namedview>
  <defs
     id="defs1">
    <linearGradient
       id="linearGradient4"
       inkscape:collect="always">
      <stop
         style="stop-color:#8ba404;stop-opacity:1;"
         offset="0.81999999"
         id="stop5" />
      <stop
         style="stop-color:#095b3d;stop-opacity:1;"
         offset="1"
         id="stop6" />
    </linearGradient>
    <linearGradient
       id="linearGradient1"
       inkscape:collect="always">
      <stop
         style="stop-color:#e6833c;stop-opacity:1;"
         offset="0.25"
         id="stop1" />
      <stop
         style="stop-color:#f6400e;stop-opacity:1;"
         offset="1"
         id="stop4" />
    </linearGradient>
    <inkscape:path-effect
       effect="fillet_chamfer"
       id="path-effect5"
       is_visible="true"
       lpeversion="1"
       nodesatellites_param="F,0,0,1,0,0,0,1 @ F,0,0,1,0,0,0,1 @ F,0,0,1,0,0,0,1 @ F,0,0,1,0,0,0,1 @ F,0,0,1,0,0,0,1 @ F,0,0,1,0,0,0,1"
       radius="0"
       unit="px"
       method="auto"
       mode="F"
       chamfer_steps="1"
       flexible="false"
       use_knot_distance="true"
       apply_no_radius="true"
       apply_with_radius="true"
       only_selected="false"
       hide_knots="false" />
    <inkscape:path-effect
       effect="fillet_chamfer"
       id="path-effect4"
       is_visible="true"
       lpeversion="1"
       nodesatellites_param="F,0,0,1,0,5.0262704,0,1 @ F,0,0,1,0,5.0262704,0,1 @ F,0,0,1,0,5.0262704,0,1 @ F,0,0,1,0,5.0262704,0,1"
       radius="18.996927"
       unit="px"
       method="auto"
       mode="F"
       chamfer_steps="1"
       flexible="false"
       use_knot_distance="true"
       apply_no_radius="true"
       apply_with_radius="true"
       only_selected="false"
       hide_knots="false" />
    <inkscape:path-effect
       effect="fillet_chamfer"
       id="path-effect3"
       is_visible="true"
       lpeversion="1"
       nodesatellites_param="F,0,0,1,0,0,0,1 @ F,0,0,1,0,0,0,1 @ F,0,0,1,0,0,0,1 @ F,0,0,1,0,0,0,1 @ F,0,0,1,0,0,0,1 @ F,0,0,1,0,0,0,1"
       radius="0"
       unit="px"
       method="auto"
       mode="F"
       chamfer_steps="1"
       flexible="false"
       use_knot_distance="true"
       apply_no_radius="true"
       apply_with_radius="true"
       only_selected="false"
       hide_knots="false" />
    <linearGradient
       id="swatch3"
       inkscape:swatch="solid">
      <stop
         style="stop-color:#006428;stop-opacity:1;"
         offset="0"
         id="stop3" />
    </linearGradient>
    <linearGradient
       id="swatch2"
       inkscape:swatch="solid">
      <stop
         style="stop-color:#006428;stop-opacity:1;"
         offset="0"
         id="stop2" />
    </linearGradient>
    <inkscape:path-effect
       effect="fillet_chamfer"
       id="path-effect2"
       is_visible="true"
       lpeversion="1"
       nodesatellites_param="F,0,0,1,0,0,0,1 @ F,0,0,1,0,0,0,1 @ F,0,0,1,0,0,0,1 @ F,0,0,1,0,0,0,1 @ F,0,0,1,0,0,0,1 @ F,0,0,1,0,0,0,1"
       radius="0"
       unit="px"
       method="auto"
       mode="F"
       chamfer_steps="1"
       flexible="false"
       use_knot_distance="true"
       apply_no_radius="true"
       apply_with_radius="true"
       only_selected="false"
       hide_knots="false" />
    <radialGradient
       inkscape:collect="always"
       xlink:href="#linearGradient1"
       id="radialGradient4"
       cx="60.412912"
       cy="59.237211"
       fx="60.412912"
       fy="59.237211"
       r="28.595603"
       gradientTransform="matrix(1,0,0,0.23779619,0,45.150828)"
       gradientUnits="userSpaceOnUse" />
    <radialGradient
       inkscape:collect="always"
       xlink:href="#linearGradient4"
       id="radialGradient6"
       cx="60"
       cy="37.5"
       fx="60"
       fy="37.5"
       r="30"
       gradientTransform="matrix(1,0,0,0.25,0,28.125)"
       gradientUnits="userSpaceOnUse" />
  </defs>
  <g
     inkscape:label="Layer 1"
     inkscape:groupmode="layer"
     id="layer1"
     transform="matrix(3.7795276,0,0,3.7795276,89.999999,39.999994)">
    <g
       id="g5"
       inkscape:label="button_play"
       style="opacity:1;fill:#006428;fill-opacity:1"
       transform="matrix(1.3229167,0,0,1.0230556,-10.583333,-1.5875)">
      <path
         style="opacity:1;fill:url(#radialGradient6);fill-opacity:1;stroke:none;stroke-width:0.132291;stroke-opacity:1"
         id="rect1"
         width="60"
         height="15"
         x="30"
         y="30"
         inkscape:path-effect="#path-effect2"
         sodipodi:type="rect"
         d="m 37.5,30 h 45 c 4.155,0 7.5,3.345 7.5,7.5 0,4.155 -3.345,7.5 -7.5,7.5 h -45 C 33.345,45 30,41.655 30,37.5 30,33.345 33.345,30 37.5,30 Z"
         ry="7.5"
         inkscape:label="background" />
      <path
         style="fill:url(#radialGradient4);fill-opacity:1;stroke:#0e0c0d;stroke-width:0.757586;stroke-dasharray:none;stroke-opacity:1"
         id="rect4"
         width="56.43362"
         height="12.842265"
         x="32.196102"
         y="52.816078"
         inkscape:path-effect="#path-effect5"
         sodipodi:type="rect"
         d="M 38.617235,52.816078 H 82.20859 c 3.557307,0 6.421133,2.863825 6.421133,6.421133 0,3.557307 -2.863826,6.421132 -6.421133,6.421132 H 38.617235 c -3.557308,0 -6.421133,-2.863825 -6.421133,-6.421132 0,-3.557308 2.863825,-6.421133 6.421133,-6.421133 z"
         ry="6.4211326"
         transform="matrix(1.014063,0,0,0.99242697,-1.2655899,-21.288606)"
         inkscape:label="border" />
    </g>
    <g
       id="g27"
       transform="translate(9.2606537,-14.155214)"
       inkscape:label="g27"
       style="stroke-width:1.00012499;stroke-dasharray:none;fill:#0e0c0d;fill-opacity:1;stroke:#0e0c0d;stroke-opacity:1">
      <path
         id="path27"
         style="stroke:#0e0c0d;stroke-width:1.00012499;stroke-dasharray:none;fill:#0e0c0d;fill-opacity:1;stroke-opacity:1"
         d="m 46.792492,46.792498 v 0.342098 h 0.342098 v -0.342098 z m 1.322917,0 v 0.342098 h 0.342098 v -0.342098 z m 1.322917,0 v 0.342098 h 0.342098 v -0.342098 z m 1.322916,0 v 0.342098 h 0.342098 v -0.342098 z m 2.645834,0 v 0.342098 h 0.342098 v -0.342098 z m 6.614583,0 v 0.342098 h 0.342098 v -0.342098 z m 1.322917,0 v 0.342098 h 0.342098 v -0.342098 z m 1.322916,0 v 0.342098 h 0.342098 v -0.342098 z m 1.322917,0 v 0.342098 h 0.342098 v -0.342098 z m 2.645833,0 v 0.342098 h 0.342098 v -0.342098 z m 5.291667,0 v 0.342098 h 0.342098 v -0.342098 z m -25.135417,1.322917 v 0.342098 h 0.342098 v -0.342098 z m 3.96875,0 v 0.342098 h 0.342098 v -0.342098 z m 2.645834,0 v 0.342098 h 0.342098 v -0.342098 z m 6.614583,0 v 0.342098 h 0.342098 v -0.342098 z m 3.96875,0 v 0.342098 h 0.342098 v -0.342098 z m 2.645833,0 v 0.342098 h 0.342098 v -0.342098 z m 1.322917,0 v 0.342098 h 0.342098 v -0.342098 z m 2.645833,0 v 0.342098 h 0.342098 v -0.342098 z m 1.322917,0 v 0.342098 h 0.342098 v -0.342098 z m -25.135417,1.322917 v 0.342098 h 0.342098 v -0.342098 z m 3.96875,0 v 0.342098 h 0.342098 v -0.342098 z m 2.645834,0 v 0.342098 h 0.342098 v -0.342098 z m 6.614583,0 v 0.342098 h 0.342098 v -0.342098 z m 3.96875,0 v 0.342098 h 0.342098 v -0.342098 z m 3.96875,0 v 0.342098 h 0.342098 v -0.342098 z m 1.322917,0 v 0.342098 h 0.342098 v -0.342098 z m 1.322916,0 v 0.342098 h 0.342098 v -0.342098 z m -23.8125,1.322916 v 0.342098 h 0.342098 v -0.342098 z m 1.322917,0 v 0.342098 h 0.342098 v -0.342098 z m 1.322917,0 v 0.342098 h 0.342098 v -0.342098 z m 1.322916,0 v 0.342098 h 0.342098 v -0.342098 z m 2.645834,0 v 0.342098 h 0.342098 v -0.342098 z m 6.614583,0 v 0.342098 h 0.342098 v -0.342098 z m 1.322917,0 v 0.342098 h 0.342098 v -0.342098 z m 1.322916,0 v 0.342098 h 0.342098 v -0.342098 z m 1.322917,0 v 0.342098 h 0.342098 v -0.342098 z m 5.291667,0 v 0.342098 h 0.342098 v -0.342098 z m -22.489584,1.322917 v 0.342098 h 0.342098 v -0.342098 z m 6.614584,0 v 0.342098 h 0.342098 v -0.342098 z m 6.614583,0 v 0.342098 h 0.342098 v -0.342098 z m 3.96875,0 v 0.342098 h 0.342098 v -0.342098 z m 5.291667,0 v 0.342098 h 0.342098 v -0.342098 z m -22.489584,1.322917 v 0.342098 h 0.342098 v -0.342098 z m 6.614584,0 v 0.342098 h 0.342098 v -0.342098 z m 6.614583,0 v 0.342098 h 0.342098 v -0.342098 z m 3.96875,0 v 0.342098 h 0.342098 v -0.342098 z m 5.291667,0 v 0.342098 h 0.342098 v -0.342098 z m -22.489584,1.322916 v 0.342098 h 0.342098 v -0.342098 z m 6.614584,0 v 0.342098 h 0.342098 v -0.342098 z m 1.322916,0 v 0.342098 h 0.342098 v -0.342098 z m 1.322917,0 v 0.342098 h 0.342098 v -0.342098 z m 1.322917,0 v 0.342098 h 0.342098 v -0.342098 z m 2.645833,0 v 0.342098 h 0.342098 v -0.342098 z m 3.96875,0 v 0.342098 h 0.342098 v -0.342098 z m 5.291667,0 v 0.342098 h 0.342098 v -0.342098 z" />
    </g>
  </g>
</svg>
